# xmcd
#
# Track frame offsets: 
#        150
#        19794
#        43347
#        57490
#        77912
#        97550
#        110292
#        131630
#        147170
#        164900
#        184645
#
# Disc length: 2813 seconds
#
# Revision: 0
# Processed by: cddbd v1.5.2PL0 Copyright (c) Steve Scherf et al.
# Submitted via: ExactAudioCopyFreeDBPlugin 1.0
#
DISCID=940afb0b
DTITLE=Bottom Line - Complicated Machinery
DYEAR=1999
DGENRE=
TTITLE0=The Make
TTITLE1=Vision of Light
TTITLE2=Rock-N-Roll in Excess
TTITLE3=Slidin' Sideways
TTITLE4=Davies Street
TTITLE5=Lovin' Linda and Dancin' Louise
TTITLE6=Change is Gonna Come
TTITLE7=V-8 Date
TTITLE8=Bad Boys
TTITLE9=American Dream
TTITLE10='Lil Savannah
EXTD=
EXTT0=
EXTT1=
EXTT2=
EXTT3=
EXTT4=
EXTT5=
EXTT6=
EXTT7=
EXTT8=
EXTT9=
EXTT10=
PLAYORDER=
